<?xml version="1.0" encoding="utf-8"?>
<!-- Generator: Adobe Illustrator 26.3.1, SVG Export Plug-In . SVG Version: 6.00 Build 0)  -->
<svg version="1.1" id="Layer_1" xmlns="http://www.w3.org/2000/svg" xmlns:xlink="http://www.w3.org/1999/xlink" x="0px" y="0px"
	 viewBox="0 0 1024 1024" style="enable-background:new 0 0 1024 1024;" xml:space="preserve">
<style type="text/css">
	.st0{fill:#302E41;}
	.st1{fill:#CCCCCC;}
	.st2{fill:#6AB845;}
</style>
<rect x="585.2" y="569.8" class="st0" width="32.8" height="6.1"/>
<g>
	<circle class="st1" cx="331.3" cy="42.1" r="42.1"/>
	<circle class="st1" cx="150.5" cy="291.6" r="142.3"/>
	<path class="st0" d="M251.1,344.2l-0.1-5.3c9.9-0.3,18.6-0.9,25.2-5.7c3.8-2.9,6.1-7.3,6.3-12c0.2-2.9-0.9-5.7-3.1-7.7
		c-4.3-3.7-11.4-2.5-16.5-0.1l-4.4,2l8.4-61.7l5.3,0.7l-7.2,52.5c6.9-2,13.4-1.2,17.8,2.6c3.4,3,5.3,7.4,4.9,11.9
		c-0.3,6.4-3.4,12.3-8.5,16.1C270.8,343.7,259.8,344,251.1,344.2z"/>
	<rect x="207.8" y="258.9" class="st0" width="28.6" height="5.3"/>
	<path class="st0" d="M19.9,219.4c-14.3-11.7-18.8-33-12.1-50c6.9-17.6,25.4-26.5,43.7-24.4c10.2,1,19.7,5.7,26.7,13.2
		c3.4,3.8,9.8-1,6.4-4.8C70,137,45.2,132.4,25.2,141C4.4,150-6,172.6-2.4,194.5c1.8,12.2,8,23.3,17.5,31.2
		C19,229,23.9,222.7,19.9,219.4z"/>
</g>
<g>
	<circle class="st1" cx="858.1" cy="83" r="83"/>
	
		<ellipse transform="matrix(0.7071 -0.7071 0.7071 0.7071 -337.1667 672.8093)" class="st2" cx="643.6" cy="743.4" rx="280.6" ry="280.6"/>
	<path class="st0" d="M516.3,592.3c-32.8-7.7-68.1-18.1-91.5-43.9c-19.9-22-29.2-55.8-11.6-81.9c16.1-23.8,47.8-32.5,74.5-36.9
		c31.1-5.2,63-5.9,92.1-19.2c14.3-6.5,26.8-16.4,36.3-28.8c8.9-12.5,16.6-25.7,23-39.6c6.1-13.5,14.2-26,24.1-37.1
		c11.3-11,25.8-18.1,41.4-20.2c35.2-5.3,68.5,10.9,96.2,31.1c26.8,19.9,51.1,43,72.4,68.7c48.4,57.6,81.6,126.4,96.9,200
		c2,9.9,17.2,5.7,15.2-4.2c-14.6-69.7-44.8-135.2-88.4-191.5c-21.6-28.1-46.4-53.5-74-75.8c-28.5-23-61.4-43-98.9-44.9
		c-17.3-1-34.6,2.4-50.3,10c-14.4,7.6-26.5,18.8-35,32.6c-17.7,26.8-26.2,61.4-54.7,79.5c-28.9,18.4-65,18.5-97.7,23.6
		c-29.1,4.5-61.5,14.1-81.3,37.5c-21.8,25.9-21,61.1-4.7,89.7c18.1,31.7,51.7,49,85.5,59.3c8.7,2.6,17.5,4.9,26.3,7
		C521.9,609.8,526.1,594.6,516.3,592.3L516.3,592.3z"/>
	<path class="st0" d="M631.6,837.1l-0.3-10.5c19.5-0.5,36.7-1.8,49.6-11.2c7.4-5.7,12-14.4,12.5-23.7c0.5-5.7-1.8-11.3-6-15.2
		c-8.6-7.2-22.4-4.9-32.4-0.3l-8.7,4l16.6-121.6l10.4,1.4l-14.2,103.4c13.7-4,26.3-2.3,35,5c6.8,5.9,10.4,14.6,9.8,23.6
		c-0.6,12.6-6.8,24.2-16.8,31.8C670.5,836,648.9,836.6,631.6,837.1z"/>
	<rect x="724.7" y="668.9" class="st0" width="56.5" height="10.5"/>
</g>
</svg>
